<svg width="679" height="173" viewBox="0 0 679 173" fill="none" xmlns="http://www.w3.org/2000/svg">
<path d="M84.557 56.0162C60.5542 106.977 28.9926 131.889 0 159C63.4901 141.415 96.4692 107.17 116.193 77.0223L136.697 102.696L149 0L53.5072 47.8472L84.557 56.0162Z" fill="url(#paint0_linear_8060_647)"/>
<path d="M633.56 143.377C625.908 143.377 619.212 141.829 613.472 138.733C607.733 135.638 603.231 130.943 599.967 124.649C596.816 118.252 595.241 110.203 595.241 100.504C595.241 90.7018 596.76 82.6535 599.798 76.3594C602.837 70.0652 607.226 65.3704 612.966 62.2749C618.705 59.1795 625.57 57.6317 633.56 57.6317C642.113 57.6317 649.766 59.4374 656.519 63.0488C663.384 66.557 668.785 71.5098 672.724 77.9071C676.776 84.3045 678.802 91.8368 678.802 100.504C678.802 109.275 676.776 116.859 672.724 123.256C668.785 129.653 663.384 134.606 656.519 138.114C649.766 141.623 642.113 143.377 633.56 143.377ZM579.879 172.165V58.8699H605.032V75.8951L604.525 100.659L606.213 125.268V172.165H579.879ZM629.003 123.566C633.392 123.566 637.274 122.637 640.65 120.78C644.139 118.922 646.896 116.291 648.922 112.886C651.06 109.378 652.13 105.251 652.13 100.504C652.13 95.6546 651.06 91.5273 648.922 88.1222C646.896 84.7172 644.139 82.086 640.65 80.2288C637.274 78.3715 633.392 77.4428 629.003 77.4428C624.614 77.4428 620.675 78.3715 617.186 80.2288C613.697 82.086 610.94 84.7172 608.914 88.1222C606.888 91.5273 605.876 95.6546 605.876 100.504C605.876 105.251 606.888 109.378 608.914 112.886C610.94 116.291 613.697 118.922 617.186 120.78C620.675 122.637 624.614 123.566 629.003 123.566Z" fill="url(#paint1_linear_8060_647)"/>
<path d="M508.526 143.991C491.758 143.991 478.647 139.709 469.193 131.145C459.74 122.581 455.013 110.354 455.013 94.4634V33.7919H482.36V93.5348C482.36 103.853 484.668 111.282 489.282 115.822C493.896 120.362 500.367 122.632 508.695 122.632C517.023 122.632 523.494 120.362 528.108 115.822C532.722 111.282 535.029 103.853 535.029 93.5348V33.7919H562.039V94.4634C562.039 110.354 557.312 122.581 547.859 131.145C538.405 139.709 525.294 143.991 508.526 143.991Z" fill="url(#paint2_linear_8060_647)"/>
<path d="M410.715 142.135V27.293H437.05V142.135H410.715Z" fill="url(#paint3_linear_8060_647)"/>
<path d="M351.736 143.377C341.382 143.377 332.267 141.519 324.389 137.805C316.624 134.09 310.603 129.034 306.326 122.637C302.05 116.136 299.911 108.759 299.911 100.504C299.911 92.1464 301.993 84.7688 306.157 78.3715C310.434 71.8709 316.23 66.815 323.545 63.2036C330.86 59.489 339.132 57.6317 348.36 57.6317C357.25 57.6317 365.241 59.3858 372.331 62.894C379.533 66.2991 385.217 71.2518 389.381 77.7524C393.545 84.1497 395.627 91.8368 395.627 100.814C395.627 101.742 395.57 102.826 395.458 104.064C395.345 105.199 395.233 106.282 395.12 107.314H321.35V93.2298H381.278L371.149 97.4087C371.149 93.075 370.193 89.3088 368.279 86.1102C366.366 82.9115 363.722 80.4351 360.345 78.681C356.969 76.8237 353.03 75.8951 348.529 75.8951C344.027 75.8951 340.032 76.8237 336.543 78.681C333.167 80.4351 330.522 82.9631 328.609 86.2649C326.696 89.4636 325.739 93.2814 325.739 97.7182V101.433C325.739 105.973 326.808 109.997 328.947 113.505C331.198 116.91 334.292 119.541 338.231 121.399C342.283 123.153 347.009 124.03 352.411 124.03C357.251 124.03 361.471 123.359 365.072 122.018C368.786 120.676 372.162 118.664 375.201 115.982L389.212 129.911C385.048 134.245 379.815 137.598 373.513 139.972C367.21 142.242 359.951 143.377 351.736 143.377Z" fill="url(#paint4_linear_8060_647)"/>
<path d="M237.438 144C227.527 144 218.03 142.866 208.945 140.597C199.86 138.225 192.545 135.182 187 131.47L196.734 112.597C202.043 115.897 208.296 118.63 215.493 120.796C222.808 122.858 230.182 123.89 237.615 123.89C243.278 123.89 247.821 123.426 251.242 122.497C254.782 121.466 257.377 120.074 259.029 118.321C260.681 116.567 261.507 114.556 261.507 112.287C261.507 109.4 260.209 107.131 257.613 105.481C255.018 103.728 251.596 102.335 247.349 101.304C243.101 100.17 238.382 99.1382 233.191 98.2101C228.117 97.1788 222.985 95.9412 217.794 94.4974C212.721 93.0535 208.06 91.1972 203.813 88.9283C199.565 86.6594 196.085 83.6686 193.371 79.9559C190.775 76.2432 189.478 71.4992 189.478 65.7239C189.478 59.536 191.365 53.9154 195.141 48.862C199.034 43.7055 204.816 39.6318 212.485 36.641C220.271 33.5471 230.005 32.0001 241.686 32.0001C249.473 32.0001 257.141 32.8252 264.692 34.4753C272.243 36.0222 278.91 38.3942 284.691 41.5913L275.842 60.6189C270.061 57.7313 264.28 55.6171 258.498 54.2764C252.717 52.8325 247.054 52.1106 241.509 52.1106C235.963 52.1106 231.421 52.6778 227.881 53.8123C224.342 54.9467 221.805 56.4421 220.271 58.2985C218.738 60.0517 217.971 62.1143 217.971 64.4863C217.971 67.2708 219.269 69.5397 221.864 71.2929C224.46 72.943 227.881 74.2837 232.129 75.315C236.376 76.3464 241.037 77.3777 246.11 78.409C251.301 79.4403 256.434 80.6263 261.507 81.967C266.698 83.3077 271.418 85.1125 275.665 87.3813C279.912 89.6502 283.334 92.641 285.93 96.3537C288.643 100.066 290 104.759 290 110.431C290 116.516 288.053 122.085 284.16 127.138C280.266 132.192 274.426 136.265 266.639 139.359C258.97 142.453 249.237 144 237.438 144Z" fill="url(#paint5_linear_8060_647)"/>
<defs>
<linearGradient id="paint0_linear_8060_647" x1="142" y1="20.3143" x2="6.37905" y2="153.75" gradientUnits="userSpaceOnUse">
<stop stop-color="#52E99D"/>
<stop offset="1" stop-color="#2CBC48"/>
</linearGradient>
<linearGradient id="paint1_linear_8060_647" x1="678.802" y1="99.7288" x2="187" y2="99.7288" gradientUnits="userSpaceOnUse">
<stop stop-color="#52E99D"/>
<stop offset="1" stop-color="#2CBC48"/>
</linearGradient>
<linearGradient id="paint2_linear_8060_647" x1="678.802" y1="99.7288" x2="187" y2="99.7288" gradientUnits="userSpaceOnUse">
<stop stop-color="#52E99D"/>
<stop offset="1" stop-color="#2CBC48"/>
</linearGradient>
<linearGradient id="paint3_linear_8060_647" x1="678.802" y1="99.7288" x2="187" y2="99.7288" gradientUnits="userSpaceOnUse">
<stop stop-color="#52E99D"/>
<stop offset="1" stop-color="#2CBC48"/>
</linearGradient>
<linearGradient id="paint4_linear_8060_647" x1="678.802" y1="99.7288" x2="187" y2="99.7288" gradientUnits="userSpaceOnUse">
<stop stop-color="#52E99D"/>
<stop offset="1" stop-color="#2CBC48"/>
</linearGradient>
<linearGradient id="paint5_linear_8060_647" x1="678.802" y1="99.7288" x2="187" y2="99.7288" gradientUnits="userSpaceOnUse">
<stop stop-color="#52E99D"/>
<stop offset="1" stop-color="#2CBC48"/>
</linearGradient>
</defs>
</svg>
